<svg width="34" height="36" viewBox="0 0 34 36" fill="none" xmlns="http://www.w3.org/2000/svg">
<path d="M17 14.28C16.3051 14.28 15.6258 14.4982 15.0481 14.9069C14.4703 15.3157 14.02 15.8967 13.7541 16.5764C13.4882 17.2562 13.4186 18.0041 13.5542 18.7257C13.6897 19.4473 14.0243 20.1102 14.5157 20.6304C15.007 21.1507 15.633 21.505 16.3146 21.6485C16.9961 21.7921 17.7025 21.7184 18.3445 21.4368C18.9865 21.1553 19.5352 20.6785 19.9212 20.0667C20.3073 19.455 20.5133 18.7357 20.5133 18C20.5133 17.5115 20.4224 17.0277 20.2459 16.5764C20.0693 16.1251 19.8105 15.715 19.4843 15.3696C19.158 15.0241 18.7707 14.7501 18.3445 14.5632C17.9182 14.3762 17.4614 14.28 17 14.28ZM31.0675 10.605C31.06 9.44664 30.8586 8.29886 30.4725 7.215C30.1881 6.42189 29.7482 5.70164 29.1816 5.10178C28.6151 4.50192 27.9349 4.03608 27.1858 3.735C26.1622 3.3262 25.0782 3.11289 23.9841 3.105C22.1566 3 21.6183 3 17 3C12.3816 3 11.8433 3 10.0158 3.105C8.9218 3.11289 7.83779 3.3262 6.81415 3.735C6.0651 4.03608 5.38486 4.50192 4.81833 5.10178C4.25179 5.70164 3.81183 6.42189 3.52748 7.215C3.14139 8.29886 2.93993 9.44664 2.93248 10.605C2.83331 12.54 2.83331 13.11 2.83331 18C2.83331 22.89 2.83331 23.46 2.93248 25.395C2.94773 26.5574 3.14891 27.7087 3.52748 28.8C3.81057 29.5895 4.25016 30.3056 4.81665 30.9C5.38075 31.5035 6.06245 31.9693 6.81415 32.265C7.83779 32.6738 8.9218 32.8871 10.0158 32.895C11.8433 33 12.3816 33 17 33C21.6183 33 22.1566 33 23.9841 32.895C25.0782 32.8871 26.1622 32.6738 27.1858 32.265C27.9375 31.9693 28.6192 31.5035 29.1833 30.9C29.7498 30.3056 30.1894 29.5895 30.4725 28.8C30.8582 27.7108 31.0596 26.5582 31.0675 25.395C31.1666 23.46 31.1666 22.89 31.1666 18C31.1666 13.11 31.1666 12.54 31.0675 10.605ZM27.4691 22.605C27.4237 23.5307 27.2371 24.4424 26.9166 25.305C26.6416 26.0245 26.2328 26.6782 25.7144 27.227C25.196 27.7759 24.5787 28.2088 23.8991 28.5C23.0768 28.8204 22.2109 28.9977 21.335 29.025H12.665C11.7891 28.9977 10.9232 28.8204 10.1008 28.5C9.39829 28.2236 8.76387 27.7826 8.24498 27.21C7.73167 26.6719 7.33526 26.0218 7.08331 25.305C6.77952 24.4352 6.61667 23.5173 6.60165 22.59V13.41C6.61667 12.4827 6.77952 11.5648 7.08331 10.695C7.34438 9.95115 7.76087 9.27942 8.30165 8.73C8.81212 8.18944 9.42544 7.77014 10.1008 7.5C10.9232 7.17961 11.7891 7.00231 12.665 6.975H21.335C22.2109 7.00231 23.0768 7.17961 23.8991 7.5C24.6017 7.77642 25.2361 8.21741 25.755 8.79C26.2683 9.32812 26.6647 9.9782 26.9166 10.695C27.2192 11.5657 27.3867 12.4826 27.4125 13.41V18C27.4125 21.09 27.5116 21.405 27.4691 22.59V22.605ZM25.2025 11.445C25.0338 10.9605 24.7679 10.5205 24.423 10.1553C24.0782 9.79018 23.6626 9.50859 23.205 9.33C22.5766 9.09939 21.9149 8.98769 21.25 9H12.75C12.0817 9.00692 11.4198 9.13895 10.795 9.39C10.3444 9.56048 9.93321 9.83057 9.58881 10.1823C9.2444 10.534 8.97465 10.9594 8.79748 11.43C8.59175 12.098 8.49124 12.7974 8.49998 13.5V22.5C8.51402 23.2068 8.63849 23.9063 8.86831 24.57C9.03699 25.0545 9.30292 25.4945 9.64778 25.8597C9.99264 26.2248 10.4082 26.5064 10.8658 26.685C11.4703 26.9204 12.1063 27.052 12.75 27.075H21.25C21.9183 27.0681 22.5801 26.9361 23.205 26.685C23.6626 26.5064 24.0782 26.2248 24.423 25.8597C24.7679 25.4945 25.0338 25.0545 25.2025 24.57C25.4396 23.9084 25.5643 23.2076 25.5708 22.5V13.5C25.5712 12.7917 25.4463 12.0896 25.2025 11.43V11.445ZM17 23.73C16.29 23.73 15.5869 23.5817 14.9312 23.2935C14.2754 23.0054 13.6797 22.5831 13.1784 22.0508C12.677 21.5185 12.2797 20.8868 12.0093 20.1916C11.7389 19.4965 11.6006 18.7518 11.6025 18C11.6025 16.8661 11.9202 15.7576 12.5155 14.815C13.1108 13.8724 13.9568 13.138 14.9465 12.7048C15.9362 12.2715 17.025 12.1589 18.0751 12.3812C19.1253 12.6035 20.0895 13.1508 20.8458 13.9536C21.6021 14.7565 22.1163 15.7789 22.3236 16.8914C22.5308 18.0039 22.4216 19.1564 22.0098 20.2032C21.598 21.2499 20.9022 22.1438 20.0104 22.7716C19.1186 23.3994 18.0709 23.733 17 23.73ZM22.6666 13.395C22.3535 13.3599 22.0637 13.2033 21.853 12.9555C21.6424 12.7076 21.5259 12.3859 21.5259 12.0525C21.5259 11.7191 21.6424 11.3974 21.853 11.1495C22.0637 10.9017 22.3535 10.7451 22.6666 10.71C22.9798 10.7451 23.2696 10.9017 23.4803 11.1495C23.6909 11.3974 23.8074 11.7191 23.8074 12.0525C23.8074 12.3859 23.6909 12.7076 23.4803 12.9555C23.2696 13.2033 22.9798 13.3599 22.6666 13.395Z" fill="#525252"/>
</svg>
