<svg width="32" height="34" viewBox="0 0 32 34" fill="none" xmlns="http://www.w3.org/2000/svg">
<path d="M25.566 2.58508H6.43298C4.23298 2.58508 2.43298 4.49758 2.43298 6.83508V27.166C2.43298 29.5035 4.23298 31.416 6.43298 31.416H25.568C27.768 31.416 29.568 29.5035 29.568 27.166V6.83508C29.566 4.49758 27.768 2.58508 25.566 2.58508ZM25.309 17.9733H22.089V30.3514H17.271V17.9733H14.861V13.7063H17.271V11.1456C17.271 7.66489 18.631 5.59408 22.501 5.59408H25.718V9.86002H23.706C22.202 9.86002 22.102 10.4582 22.102 11.5706L22.089 13.7063H25.734L25.309 17.9733Z" fill="#525252"/>
</svg>
