<svg width="32" height="34" viewBox="0 0 32 34" fill="none" xmlns="http://www.w3.org/2000/svg">
<path d="M25.566 2.58496H6.43298C4.23298 2.58496 2.43298 4.49746 2.43298 6.83496V27.1659C2.43298 29.5034 4.23298 31.4159 6.43298 31.4159H25.568C27.768 31.4159 29.568 29.5034 29.568 27.1659V6.83496C29.566 4.49746 27.768 2.58496 25.566 2.58496ZM25.309 17.9731H22.089V30.3513H17.271V17.9731H14.861V13.7061H17.271V11.1455C17.271 7.66477 18.631 5.59396 22.501 5.59396H25.718V9.8599H23.706C22.202 9.8599 22.102 10.4581 22.102 11.5705L22.089 13.7061H25.734L25.309 17.9731Z" fill="#525252"/>
</svg>
